<?xml version="1.0" encoding="utf-8"?>
<!-- Generator: Adobe Illustrator 24.1.2, SVG Export Plug-In . SVG Version: 6.00 Build 0)  -->
<svg version="1.1" id="Layer_1" xmlns="http://www.w3.org/2000/svg" xmlns:xlink="http://www.w3.org/1999/xlink" x="0px" y="0px"
	 viewBox="0 0 150 150" style="enable-background:new 0 0 150 150;" xml:space="preserve">
<style type="text/css">
	.st0{fill:#333333;}
</style>
<g id="Group_132" transform="translate(0.945 99.325)">
	<g id="Group_128" transform="translate(8.048)">
		<rect id="Rectangle_28" x="-0.8" y="23.4" class="st0" width="124.1" height="3.3"/>
	</g>
	<g id="Group_129" transform="translate(134.229)">
		<rect id="Rectangle_29" x="1.5" y="23.4" class="st0" width="4.1" height="3.3"/>
	</g>
	<g id="Group_130" transform="translate(141.773)">
		<rect id="Rectangle_30" x="1.6" y="23.4" class="st0" width="4.1" height="3.3"/>
	</g>
	<g id="Group_131">
		<rect id="Rectangle_31" x="-0.9" y="23.4" class="st0" width="4.1" height="3.3"/>
	</g>
</g>
<g id="Group_136" transform="translate(22.455 55.336)">
	<path id="Path_42" class="st0" d="M37.2,54.8H15.3V32.9h21.9V54.8z M18.5,51.5h15.3V36.2H18.5V51.5z"/>
</g>
<g id="Group_137" transform="translate(39.558 31.019)">
	<path id="Path_43" class="st0" d="M24,49.4c-4.7,0-8.5-3.8-8.5-8.5s3.8-8.5,8.5-8.5s8.5,3.8,8.5,8.5l0,0
		C32.5,45.6,28.7,49.4,24,49.4z M24,35.8c-2.9,0-5.2,2.3-5.2,5.2s2.3,5.2,5.2,5.2s5.2-2.3,5.2-5.2S26.9,35.8,24,35.8L24,35.8
		L24,35.8z"/>
</g>
<g id="Group_139" transform="translate(26.498 18.219)">
	<path id="Path_44" class="st0" d="M-0.4,50.6V22h14.9v15.4L-0.4,50.6z M2.8,25.3v18.1l8.4-7.4V25.3H2.8z"/>
</g>
<path class="st0" d="M63.5,45.3c-0.4,0-0.8,0.1-1.2,0.4l-39,34.5l-4.5-5.1l44.8-39.3v-3.9c-0.4,0-0.8,0.1-1.1,0.4L15.4,73.7
	c-0.3,0.3-0.5,0.7-0.5,1.1s0.1,0.9,0.4,1.2l6.7,7.6c0.3,0.4,0.7,0.6,1.2,0.6c0.4,0,0.8-0.1,1.1-0.4l39.3-34.6L63.5,45.3L63.5,45.3z"
	/>
<path class="st0" d="M143.6,53.5c-0.2-0.6-0.7-1.1-1.4-1.2l-25-3.6L106,26.1c-0.3-0.6-0.9-0.9-1.5-0.9s-1.2,0.4-1.5,0.9L91.8,48.7
	l-25,3.6c-0.6,0.1-1.2,0.5-1.4,1.2c-0.2,0.6,0,1.3,0.4,1.7L84,72.9l-4.3,24.9c-0.1,0.6,0.2,1.3,0.7,1.7c0.5,0.4,1.2,0.4,1.8,0.1
	l22.4-11.8l22.4,11.8c0.2,0.1,0.5,0.2,0.8,0.2c0.4,0,0.7-0.1,1-0.3c0.5-0.4,0.8-1,0.7-1.7L125,72.9l18.1-17.6
	C143.6,54.8,143.8,54.1,143.6,53.5z M122,71c-0.4,0.4-0.6,1-0.5,1.5l3.8,22.4l-20.1-10.6c-0.2-0.1-0.5-0.2-0.8-0.2s-0.5,0.1-0.8,0.2
	L83.6,94.9l3.8-22.4c0.1-0.6-0.1-1.1-0.5-1.5L70.7,55.2l22.5-3.3c0.6-0.1,1-0.4,1.3-0.9l10.1-20.4L114.6,51c0.2,0.5,0.7,0.8,1.3,0.9
	l22.5,3.3L122,71z"/>
<g>
	<path class="st0" d="M84.9,50.1L64.6,32.3c-0.3-0.3-0.7-0.4-1.1-0.4v3.9l17,14.9L84.9,50.1z"/>
	<path class="st0" d="M71.8,52l-7.1-6.3c-0.4-0.3-0.8-0.4-1.2-0.4v3.9l3.9,3.4L71.8,52z"/>
</g>
<g>
	<path class="st0" d="M82.3,88.3H68.2v34.4H24.8V82.6c0-0.9-0.7-1.6-1.6-1.6c-0.9,0-1.6,0.7-1.6,1.6V126h50V91.6h10L82.3,88.3z"/>
	<polygon class="st0" points="105.4,86 102.2,87.5 102.2,122.7 95,122.7 95,91.6 91.9,93.6 91.9,126 105.5,126 	"/>
</g>
</svg>
